<svg xmlns="http://www.w3.org/2000/svg" xmlns:xlink="http://www.w3.org/1999/xlink" width="810" zoomAndPan="magnify" viewBox="0 0 810 809.999993" height="809.999993" preserveAspectRatio="xMidYMid meet" version="1.0"><path fill="rgb(83.529663%, 85.879517%, 82.749939%)" d="M 313.105469 39.832031 C 308.953125 44.378906 308.757812 45.957031 308.757812 90.242188 L 308.757812 136.109375 L 260.519531 136.109375 C 214.847656 136.109375 212.082031 136.308594 207.140625 140.261719 L 202 144.214844 L 202 219.933594 C 202 302.179688 203.183594 315.027344 213.070312 344.683594 C 232.050781 401.621094 275.742188 448.277344 325.164062 464.09375 L 332.480469 466.664062 L 332.480469 497.902344 C 332.480469 539.21875 330.703125 537.441406 369.449219 537.441406 L 397.722656 537.441406 L 397.722656 578.957031 L 154.351562 578.957031 L 149.609375 583.902344 C 143.28125 590.027344 143.28125 597.542969 149.609375 603.671875 L 154.351562 608.613281 L 397.722656 608.613281 L 397.722656 645.78125 C 397.722656 672.667969 398.511719 686.109375 400.6875 694.613281 C 408.792969 725.257812 430.738281 748.585938 461.382812 759.0625 C 472.058594 762.621094 477 763.015625 497.558594 762.421875 C 518.910156 761.632812 522.667969 760.84375 534.726562 755.304688 C 562.011719 742.851562 582.375 716.558594 587.710938 687.101562 C 594.828125 648.546875 573.476562 606.4375 538.089844 589.238281 C 520.097656 580.539062 509.421875 578.957031 465.730469 578.957031 L 427.375 578.957031 L 427.375 537.441406 L 459.007812 537.441406 C 490.046875 537.441406 490.839844 537.242188 495.582031 532.5 C 500.328125 527.753906 500.527344 526.960938 500.527344 496.914062 C 500.527344 469.433594 500.921875 466.070312 504.085938 465.082031 C 536.507812 454.800781 573.28125 426.925781 593.246094 397.46875 C 610.84375 371.371094 624.285156 335.785156 628.832031 303.363281 C 630.019531 294.863281 631.007812 256.90625 631.007812 217.167969 C 631.007812 150.542969 630.808594 146.191406 627.25 141.84375 C 623.496094 137.097656 623.296875 137.097656 573.871094 136.503906 L 524.449219 135.914062 L 523.855469 89.847656 C 523.261719 47.539062 522.867188 43.191406 519.503906 39.433594 C 514.363281 33.703125 504.480469 33.898438 498.945312 39.832031 C 494.792969 44.378906 494.59375 45.957031 494.59375 90.242188 L 494.59375 136.109375 L 338.609375 136.109375 L 338.015625 89.847656 C 337.421875 47.539062 337.027344 43.191406 333.667969 39.433594 C 328.527344 33.703125 318.640625 33.898438 313.105469 39.832031 Z M 600.957031 236.34375 C 600.167969 302.375 599.769531 308.109375 595.621094 322.9375 C 578.617188 383.039062 538.484375 426.730469 489.058594 438.394531 C 472.253906 442.546875 470.871094 445.511719 470.871094 479.316406 L 470.871094 507.785156 L 360.160156 507.785156 L 360.160156 477.140625 C 360.160156 441.953125 361.148438 443.730469 339.398438 437.601562 C 293.335938 424.554688 254.191406 382.246094 238.574219 329.066406 C 231.652344 305.144531 229.675781 279.835938 229.675781 218.945312 L 229.675781 165.765625 L 601.75 165.765625 Z M 519.703125 612.960938 C 535.125 618.695312 549.753906 633.324219 555.683594 649.140625 C 564.382812 672.074219 558.648438 698.765625 541.449219 715.964844 C 514.363281 743.050781 462.960938 740.28125 440.226562 710.429688 C 429.15625 695.996094 427.375 687.101562 427.375 646.175781 L 427.375 608.613281 L 467.90625 608.613281 C 504.480469 608.613281 509.421875 609.007812 519.703125 612.960938 Z M 519.703125 612.960938 " fill-opacity="1" fill-rule="nonzero"/><path fill="rgb(83.529663%, 85.879517%, 82.749939%)" d="M 381.90625 199.96875 C 363.914062 206.097656 351.066406 214.003906 338.410156 226.855469 C 298.082031 267.976562 298.476562 335.390625 339.398438 376.316406 C 360.160156 397.074219 384.277344 406.957031 414.527344 406.957031 C 444.773438 406.957031 468.894531 397.074219 489.652344 376.316406 C 510.410156 355.558594 520.296875 331.4375 520.296875 301.191406 C 520.296875 290.511719 519.109375 278.847656 517.132812 272.324219 C 506.65625 236.9375 478.777344 209.0625 443.390625 198.582031 C 426.980469 193.839844 397.917969 194.429688 381.90625 199.96875 Z M 403.257812 287.351562 C 410.175781 302.574219 416.503906 315.621094 417.292969 316.609375 C 418.085938 317.402344 424.015625 304.75 430.539062 288.339844 L 442.203125 258.683594 L 477.59375 258.683594 L 472.253906 264.21875 L 466.917969 269.753906 L 466.917969 307.316406 C 466.917969 344.882812 466.917969 345.078125 471.859375 349.625 C 474.628906 352.195312 476.800781 354.964844 476.800781 355.953125 C 476.800781 356.742188 465.53125 357.535156 451.695312 357.535156 L 426.585938 357.535156 L 432.914062 351.011719 L 439.4375 344.289062 L 438.25 287.351562 L 424.609375 322.542969 C 416.898438 341.71875 409.78125 357.335938 408.792969 356.941406 C 407.605469 356.546875 399.5 340.730469 390.800781 321.550781 L 374.984375 286.953125 L 374.394531 311.667969 L 373.800781 336.378906 L 381.90625 345.871094 C 386.253906 351.011719 389.8125 355.753906 389.8125 356.347656 C 389.8125 356.941406 381.3125 357.535156 371.03125 357.535156 C 360.75 357.535156 352.25 356.941406 352.25 356.347656 C 352.25 355.558594 355.414062 351.207031 359.171875 346.460938 L 366.089844 338.160156 L 366.089844 275.289062 L 360.160156 268.570312 C 356.996094 264.8125 354.425781 260.859375 354.226562 260.066406 C 354.226562 259.277344 362.332031 258.882812 372.417969 259.078125 L 390.40625 259.671875 Z M 403.257812 287.351562 " fill-opacity="1" fill-rule="nonzero"/></svg>